<svg width="20" height="23" viewBox="0 0 20 23" fill="none" xmlns="http://www.w3.org/2000/svg">
<path d="M18.5741 15.5556C17.9713 17.2238 16.9528 18.7145 15.6012 19.9068C14.2496 21.0992 12.6028 21.9598 10.7942 22.419C8.98553 22.8782 7.06585 22.923 5.19058 22.5498C3.3153 22.1766 1.53712 21.396 0 20.271C2.57387 20.4397 5.09586 19.8308 7.1991 18.5329C9.30234 17.2351 10.8771 15.316 11.6944 13.0548C12.5116 10.7937 12.5287 8.30836 11.7431 5.96044C10.9576 3.61251 9.41034 1.52446 7.3265 0C9.22537 0.124041 11.0893 0.667312 12.7675 1.58583C14.4457 2.50435 15.8909 3.77229 16.9861 5.28702C18.0814 6.80175 18.7958 8.52068 19.0717 10.3046C19.3476 12.0886 19.1771 13.8875 18.5741 15.5556Z" fill="#121212"/>
</svg>
